<?xml version="1.0" standalone="no"?><!DOCTYPE svg PUBLIC "-//W3C//DTD SVG 1.1//EN" "http://www.w3.org/Graphics/SVG/1.1/DTD/svg11.dtd"><svg t="1533782037530" class="icon" style="" viewBox="0 0 1151 1024" version="1.1" xmlns="http://www.w3.org/2000/svg" p-id="5951" xmlns:xlink="http://www.w3.org/1999/xlink" width="224.8046875" height="200"><defs><style type="text/css"></style></defs><path d="M1087.998 544h-128V301.253l70.626-70.626c12.498-12.496 12.498-32.758 0-45.254-12.495-12.496-32.757-12.496-45.253 0L914.745 256h-80.746c0-141.48-114.498-256-256-256-141.48 0-256 114.498-256 256h-84.745l-86.626-86.626c-12.498-12.496-32.758-12.496-45.256 0-12.496 12.496-12.496 32.758 0 45.254L192 301.254v242.745H64c-17.672 0-32 14.326-32 32s14.328 32 32 32h128v48c0 73.268 22.512 141.372 60.968 197.778L137.374 969.37c-12.498 12.496-12.498 32.758 0 45.254 12.498 12.497 32.758 12.495 45.254 0L293.86 903.393C357.7 967.94 446.255 1007.999 544 1007.999h64c97.743 0 186.297-40.058 250.14-104.604l111.233 111.232c12.498 12.497 32.758 12.495 45.254 0 12.497-12.496 12.497-32.758 0-45.254L899.033 853.779c38.454-56.408 60.966-124.512 60.966-197.78v-48h128c17.673 0 32-14.326 32-32s-14.327-32-32-32zM578 64c106.038 0 192 85.962 192 192h-384c0-106.038 85.962-192 192-192z m30 879.999v-472c0-13.254-10.746-24-24-24h-16c-13.254 0-24 10.746-24 24v472c-158.804 0-288-129.198-288-288v-336h640v336c0 158.802-129.198 288-288 288z" p-id="5952" fill="#ffffff"></path></svg>