<?xml version="1.0" standalone="no"?><!-- Generator: Gravit.io --><svg xmlns="http://www.w3.org/2000/svg" xmlns:xlink="http://www.w3.org/1999/xlink" style="isolation:isolate" viewBox="807 326 183.333 183.333" width="183.333" height="183.333"><path d=" M 832 326 L 890.333 326 Q 893.783 326 896.225 328.442 Q 898.667 330.883 898.667 334.333 Q 898.667 337.783 896.225 340.225 Q 893.783 342.667 890.333 342.667 L 832 342.667 Q 828.55 342.667 826.108 345.108 Q 823.667 347.55 823.667 351 L 823.667 484.333 Q 823.667 487.783 826.108 490.225 Q 828.55 492.667 832 492.667 L 965.333 492.667 Q 968.783 492.667 971.225 490.225 Q 973.667 487.783 973.667 484.333 L 973.667 426 Q 973.667 422.55 976.108 420.108 Q 978.55 417.667 982 417.667 Q 985.45 417.667 987.892 420.108 Q 990.333 422.55 990.333 426 L 990.333 484.333 Q 990.333 494.683 983.008 502.008 Q 975.683 509.333 965.333 509.333 L 832 509.333 Q 821.65 509.333 814.325 502.008 Q 807 494.683 807 484.333 L 807 351 Q 807 340.65 814.325 333.325 Q 821.65 326 832 326 L 832 326 Z  M 873 384.667 L 873 434.667 Q 873 438.117 875.442 440.558 Q 877.883 443 881.333 443 L 931.333 443 Q 934.783 443 937.225 440.558 Q 939.667 438.117 939.667 434.667 Q 939.667 431.217 937.225 428.775 Q 934.783 426.333 931.333 426.333 L 901.45 426.333 L 970.592 357.192 Q 973 354.783 973 351.333 Q 973 347.75 970.625 345.375 Q 968.25 343 964.667 343 Q 961.217 343 958.808 345.408 L 889.667 414.55 L 889.667 384.667 Q 889.667 381.217 887.225 378.775 Q 884.783 376.333 881.333 376.333 Q 877.883 376.333 875.442 378.775 Q 873 381.217 873 384.667 L 873 384.667 Z " fill-rule="evenodd" fill="rgb(255,255,255)"/></svg>