<?xml version="1.0" standalone="no"?><!DOCTYPE svg PUBLIC "-//W3C//DTD SVG 1.1//EN" "http://www.w3.org/Graphics/SVG/1.1/DTD/svg11.dtd"><svg t="1533818056477" class="icon" style="" viewBox="0 0 1024 1024" version="1.1" xmlns="http://www.w3.org/2000/svg" p-id="3701" xmlns:xlink="http://www.w3.org/1999/xlink" width="200" height="200"><defs><style type="text/css"></style></defs><path d="M512 116.492l0 0c14.831 0 24.719 9.888 24.719 24.719l0 103.821c0 14.831-9.888 24.719-24.719 24.719l0 0c-14.831 0-24.719-9.888-24.719-24.719l0-103.821c0-14.831 9.888-24.719 24.719-24.719l0 0 0 0zM512 754.247l0 0c14.831 0 24.719 9.888 24.719 24.719l0 103.821c0 14.831-9.888 24.719-24.719 24.719l0 0c-14.831 0-24.719-9.888-24.719-24.719l0-103.821c0-14.831 9.888-24.719 24.719-24.719l0 0 0 0zM907.508 512l0 0c0 14.831-9.888 24.719-24.719 24.719l-103.821 0c-14.831 0-24.719-9.888-24.719-24.719l0 0c0-14.831 9.888-24.719 24.719-24.719l103.821 0c14.831 0 24.719 9.888 24.719 24.719l0 0 0 0zM269.753 512l0 0c0 14.831-9.888 24.719-24.719 24.719l-103.821 0c-14.831 0-24.719-9.888-24.719-24.719l0 0c0-14.831 9.888-24.719 24.719-24.719l103.821 0c14.831 0 24.719 9.888 24.719 24.719l0 0 0 0zM853.125 314.246l0 0c4.943 9.888 4.943 24.719-9.888 34.607l-88.989 54.384c-9.888 4.943-24.719 4.943-34.607-9.888l0 0c-4.943-9.888-4.943-24.719 9.888-34.607l88.989-54.382c14.831-4.943 29.663-4.943 34.607 9.888l0 0 0 0zM304.359 630.653l0 0c4.943 9.888 4.943 24.719-9.888 34.607l-88.989 54.382c-9.888 4.943-24.719 4.943-34.607-9.888l0 0c-4.943-9.888-4.943-24.719 9.888-34.607l88.989-54.384c9.888-4.943 24.719 0 34.607 9.888l0 0 0 0zM709.754 170.875l0 0c9.888 4.943 14.831 19.776 9.888 34.607l-54.382 88.989c-4.943 9.888-19.776 14.831-34.607 9.888l0 0c-9.888-4.943-14.831-19.776-9.888-34.607l54.384-88.989c9.888-14.831 24.719-19.776 34.607-9.888l0 0 0 0zM393.347 719.641l0 0c9.888 4.943 14.831 19.776 9.888 34.607l-54.382 88.989c-9.888 14.831-24.719 14.831-34.607 9.888l0 0c-9.888-4.943-14.831-19.776-9.888-34.607l54.382-88.989c4.943-14.831 19.776-14.831 34.607-9.888l0 0 0 0zM314.246 170.875l0 0c9.888-9.888 24.719-4.943 34.607 4.943l54.384 88.989c4.943 9.888 4.943 24.719-9.888 34.607l0 0c-14.831 9.888-29.663 4.943-34.607-4.943l-54.382-93.933c-4.943-9.888 0-24.719 9.888-29.663l0 0 0 0zM630.653 719.641l0 0c9.888-4.943 24.719-4.943 34.607 9.888l54.382 88.989c4.943 9.888 4.943 24.719-9.888 34.607l0 0c-9.888 4.943-24.719 4.943-34.607-9.888l-54.384-88.989c-4.943-14.831 0-29.663 9.888-34.607l0 0 0 0zM170.875 314.246l0 0c4.943-9.888 19.776-14.831 34.607-9.888l88.989 54.382c9.888 4.943 14.831 19.776 9.888 29.663l0 0c-9.888 14.831-24.719 19.776-34.607 9.888l-88.989-49.438c-14.831-9.888-19.776-24.719-9.888-34.607l0 0 0 0zM719.641 630.653l0 0c4.943-9.888 19.776-14.831 34.607-9.888l88.989 54.382c9.888 4.943 14.831 19.776 9.888 34.607l0 0c-4.943 9.888-19.776 14.831-34.607 9.888l-88.989-54.382c-9.888-4.943-14.831-19.776-9.888-34.607l0 0 0 0zM719.641 630.653z" p-id="3702" fill="#ffffff"></path></svg>