<?xml version="1.0" standalone="no"?><!DOCTYPE svg PUBLIC "-//W3C//DTD SVG 1.1//EN" "http://www.w3.org/Graphics/SVG/1.1/DTD/svg11.dtd"><svg t="1533964120689" class="icon" style="" viewBox="0 0 1024 1024" version="1.1" xmlns="http://www.w3.org/2000/svg" p-id="4712" xmlns:xlink="http://www.w3.org/1999/xlink" width="200" height="200"><defs><style type="text/css"></style></defs><path d="M170.666667 42.666667l298.666667 0q17.664 0 30.165333 12.501333t12.501333 30.165333-12.501333 30.165333-30.165333 12.501333l-298.666667 0q-17.664 0-30.165333 12.501333t-12.501333 30.165333l0 682.666667q0 17.664 12.501333 30.165333t30.165333 12.501333l682.666667 0q17.664 0 30.165333-12.501333t12.501333-30.165333l0-298.666667q0-17.664 12.501333-30.165333t30.165333-12.501333 30.165333 12.501333 12.501333 30.165333l0 298.666667q0 52.992-37.504 90.496t-90.496 37.504l-682.666667 0q-52.992 0-90.496-37.504t-37.504-90.496l0-682.666667q0-52.992 37.504-90.496t90.496-37.504zM682.666667 42.666667l256 0q17.664 0 30.165333 12.501333t12.501333 30.165333l0 256q0 17.664-12.501333 30.165333t-30.165333 12.501333-30.165333-12.501333-12.501333-30.165333l0-153.002667-354.005333 354.005333q-12.330667 12.330667-29.994667 12.330667-18.346667 0-30.506667-12.16t-12.16-30.506667q0-17.664 12.330667-29.994667l354.005333-354.005333-153.002667 0q-17.664 0-30.165333-12.501333t-12.501333-30.165333 12.501333-30.165333 30.165333-12.501333z" p-id="4713" fill="#ffffff"></path></svg>