<?xml version="1.0" standalone="no"?><!DOCTYPE svg PUBLIC "-//W3C//DTD SVG 1.1//EN" "http://www.w3.org/Graphics/SVG/1.1/DTD/svg11.dtd"><svg t="1533782198498" class="icon" style="" viewBox="0 0 1024 1024" version="1.1" xmlns="http://www.w3.org/2000/svg" p-id="6717" xmlns:xlink="http://www.w3.org/1999/xlink" width="200" height="200"><defs><style type="text/css"></style></defs><path d="M512.443747 958.210126c-246.242448 0-446.544643-200.301795-446.544643-446.546641 0-246.22446 200.330776-446.525656 446.544643-446.525656 246.200476 0 446.528054 200.301196 446.528054 446.528654C958.971801 757.90853 758.670206 958.210126 512.443747 958.210126L512.443747 958.210126zM512.443747 128.92558c-211.064898 0-382.755492 171.691593-382.755492 382.738104 0 211.066897 171.690594 382.757091 382.755492 382.757091 211.053306 0 382.741501-171.690194 382.741501-382.757091C895.185248 300.617174 723.494055 128.92558 512.443747 128.92558L512.443747 128.92558zM513.493036 772.165864c-88.904123 0-171.350824-40.190551-226.179051-110.262042-10.844048-13.876592-8.419691-33.904013 5.455701-44.74946 13.842015-10.875626 33.903014-8.455267 44.780439 5.454302 42.644887 54.509842 106.781802 85.761654 175.944709 85.761654 69.886417 0 134.432655-31.793244 177.080539-87.254641 10.75171-13.973526 30.746954-16.625728 44.713484-5.872019 13.968529 10.749712 16.620731 30.778132 5.868021 44.714683C686.335449 731.273589 603.344916 772.165864 513.493036 772.165864L513.493036 772.165864zM369.950158 514.860517c-26.436476 0-47.839365-21.406886-47.839365-47.850557l0-63.787152c0-26.443072 21.402889-47.840964 47.839365-47.840964 26.444071 0 47.845361 21.397892 47.845361 47.840964l0 63.787152C417.795519 493.42545 396.364649 514.860517 369.950158 514.860517L369.950158 514.860517zM657.019325 514.860517c-26.411093 0-47.840364-21.406886-47.840364-47.850557l0-63.787152c0-26.443072 21.429471-47.840964 47.840364-47.840964 26.407895 0 47.840364 21.397892 47.840364 47.840964l0 63.787152C704.859689 493.42545 683.42722 514.860517 657.019325 514.860517L657.019325 514.860517z" p-id="6718" fill="#ffffff"></path></svg>