<?xml version="1.0" standalone="no"?><!DOCTYPE svg PUBLIC "-//W3C//DTD SVG 1.1//EN" "http://www.w3.org/Graphics/SVG/1.1/DTD/svg11.dtd"><svg t="1534175955685" class="icon" style="" viewBox="0 0 1024 1024" version="1.1" xmlns="http://www.w3.org/2000/svg" p-id="6259" xmlns:xlink="http://www.w3.org/1999/xlink" width="200" height="200"><defs><style type="text/css"></style></defs><path d="M512 128c51.9 0 102.2 10.1 149.5 30.2 45.7 19.3 86.8 47 122.1 82.3 35.3 35.3 63 76.4 82.3 122.1 20 47.3 30.2 97.6 30.2 149.5s-10.1 102.2-30.2 149.5c-19.3 45.7-47 86.8-82.3 122.1-35.3 35.3-76.4 63-122.1 82.3-47.3 20-97.6 30.2-149.5 30.2s-102.2-10.1-149.5-30.2c-45.7-19.3-86.8-47-122.1-82.3-35.3-35.3-63-76.4-82.3-122.1-20-47.3-30.2-97.6-30.2-149.5s10.1-102.2 30.2-149.5c19.3-45.7 47-86.8 82.3-122.1 35.3-35.3 76.4-63 122.1-82.3C409.8 138.2 460.1 128 512 128M512 64C264.6 64 64 264.6 64 512s200.6 448 448 448 448-200.6 448-448S759.4 64 512 64L512 64z" p-id="6260" fill="#ffffff"></path><path d="M640 552 491 552c-22.1 0-40-17.9-40-40L451 288c0-22.1 17.9-40 40-40s40 17.9 40 40l0 184 109 0c22.1 0 40 17.9 40 40S662.1 552 640 552z" p-id="6261" fill="#ffffff"></path></svg>