<?xml version="1.0" standalone="no"?><!-- Generator: Gravit.io --><svg xmlns="http://www.w3.org/2000/svg" xmlns:xlink="http://www.w3.org/1999/xlink" style="isolation:isolate"
 viewBox="1519 265 256 256" width="256" height="256">
<path d=" M 1612.47 393 L 1526.147 479.324 C 1516.618 488.853 1516.618 504.325 1526.147 513.853 L 1526.147 513.853 C 1535.675 523.382 1551.147 523.382 1560.676 513.853 L 1647 427.53 L 1733.324 513.853 C 1742.853 523.382 1758.325 523.382 1767.853 513.853 L 1767.853 513.853 C 1777.382 504.325 1777.382 488.853 1767.853 479.324 L 1681.53 393 L 1767.853 306.676 C 1777.382 297.147 1777.382 281.675 1767.853 272.147 L 1767.853 272.147 C 1758.325 262.618 1742.853 262.618 1733.324 272.147 L 1647 358.47 L 1560.676 272.147 C 1551.147 262.618 1535.675 262.618 1526.147 272.147 L 1526.147 272.147 C 1516.618 281.675 1516.618 297.147 1526.147 306.676 L 1612.47 393 Z " fill="rgb(255,255,255)"/>
</svg>