<?xml version="1.0" standalone="no"?><!DOCTYPE svg PUBLIC "-//W3C//DTD SVG 1.1//EN" "http://www.w3.org/Graphics/SVG/1.1/DTD/svg11.dtd"><svg t="1533726132188" class="icon" style="" viewBox="0 0 1025 1024" version="1.1" xmlns="http://www.w3.org/2000/svg" p-id="2000" xmlns:xlink="http://www.w3.org/1999/xlink" width="200.1953125" height="200"><defs><style type="text/css"></style></defs><path d="M512.4 350.4c-88 0-160 72-160 161.6s72 161.6 160 161.6c88 0 160-72 160-161.6 0-89.6-72-161.6-160-161.6zM512.4 633.6c-67.2 0-121.6-54.4-121.6-121.6 0-67.2 54.4-121.6 121.6-121.6 67.2 0 121.6 54.4 121.6 121.6 0 67.2-54.4 121.6-121.6 121.6z" p-id="2001" fill="#ffffff"></path><path d="M989.2 451.2c-1.6-16-14.4-28.8-30.4-32-52.8-11.2-97.6-44.8-126.4-92.8-27.2-48-33.6-104-17.6-155.2 4.8-16 0-32-12.8-41.6-32-24-67.2-44.8-104-60.8-16-6.4-32-3.2-43.2 9.6-36.8 40-88 62.4-142.4 62.4-56 0-107.2-24-142.4-62.4-11.2-12.8-27.2-16-43.2-9.6-33.6 14.4-65.6 32-96 54.4v0c-3.2 1.6-6.4 4.8-8 6.4-14.4 9.6-19.2 27.2-14.4 41.6 0 1.6 1.6 3.2 1.6 6.4v0c1.6 3.2 1.6 6.4 3.2 9.6v0c9.6 46.4 4.8 96-20.8 139.2-28.8 49.6-72 80-126.4 91.2-16 3.2-27.2 16-30.4 32-4.8 40-4.8 80 0 120 1.6 16 14.4 28.8 30.4 32 52.8 11.2 97.6 44.8 126.4 92.8 27.2 48 33.6 104 17.6 155.2-4.8 16 0 32 12.8 41.6 32 24 67.2 44.8 104 60.8 16 6.4 32 3.2 43.2-9.6 36.8-40 88-62.4 142.4-62.4 56 0 107.2 24 142.4 62.4 11.2 12.8 27.2 16 43.2 9.6 36.8-16 72-35.2 104-60.8 12.8-9.6 17.6-25.6 12.8-41.6-16-51.2-11.2-107.2 17.6-155.2 27.2-48 73.6-80 126.4-92.8 16-3.2 27.2-16 30.4-32 4.8-36.8 4.8-78.4 0-118.4zM950.8 553.6c0 8-6.4 14.4-14.4 16-56 16-107.2 52.8-137.6 107.2-32 54.4-38.4 116.8-24 172.8 1.6 8-1.6 16-8 20.8-22.4 16-46.4 30.4-72 41.6-8 3.2-16 1.6-20.8-3.2-41.6-41.6-99.2-65.6-161.6-65.6-62.4 0-120 25.6-161.6 65.6-6.4 6.4-14.4 6.4-20.8 3.2-25.6-11.2-49.6-25.6-72-41.6-6.4-4.8-9.6-12.8-8-20.8 14.4-56 8-118.4-24-172.8-32-54.4-81.6-91.2-137.6-107.2-8-1.6-12.8-8-14.4-16-1.6-14.4-1.6-27.2-1.6-41.6 0-14.4 0-27.2 1.6-41.6 0-8 6.4-14.4 14.4-16 56-16 107.2-52.8 137.6-107.2 32-54.4 38.4-116.8 24-172.8-1.6-8 1.6-16 8-20.8 22.4-16 46.4-30.4 72-41.6 8-3.2 16-1.6 20.8 3.2 41.6 41.6 99.2 65.6 161.6 65.6 62.4 0 120-25.6 161.6-65.6 6.4-6.4 14.4-6.4 20.8-3.2 25.6 11.2 49.6 25.6 72 41.6 6.4 4.8 9.6 12.8 8 20.8-14.4 56-8 118.4 24 172.8 32 54.4 81.6 91.2 137.6 107.2 8 1.6 12.8 8 14.4 16 1.6 14.4 1.6 27.2 1.6 41.6 1.6 14.4 0 27.2-1.6 41.6z" p-id="2002" fill="#ffffff"></path></svg>