<?xml version="1.0" standalone="no"?><!-- Generator: Gravit.io --><svg xmlns="http://www.w3.org/2000/svg" xmlns:xlink="http://www.w3.org/1999/xlink" style="isolation:isolate" viewBox="-0.3 -0.3 15.72 13.6" width="15.72" height="13.6"><g><path d=" M 2.42 6.5 C 2.42 6.58 2.39 6.66 2.33 6.71 C 2.28 6.77 2.2 6.8 2.12 6.8 C 2.04 6.8 1.97 6.77 1.91 6.71 C 1.85 6.66 1.82 6.58 1.82 6.5 L 1.82 6.5 C 1.82 4.7 2.54 2.97 3.81 1.69 C 5.09 0.42 6.82 -0.3 8.62 -0.3 L 8.62 -0.3 C 10.42 -0.3 12.15 0.42 13.43 1.69 C 14.7 2.97 15.42 4.7 15.42 6.5 L 15.42 6.5 C 15.42 8.3 14.7 10.03 13.43 11.31 C 12.15 12.58 10.42 13.3 8.62 13.3 C 8.54 13.3 8.47 13.27 8.41 13.21 C 8.35 13.16 8.32 13.08 8.32 13 C 8.32 12.92 8.35 12.84 8.41 12.79 C 8.47 12.73 8.54 12.7 8.62 12.7 C 10.27 12.7 11.84 12.05 13.01 10.88 C 14.17 9.72 14.82 8.14 14.82 6.5 L 14.82 6.5 C 14.82 4.86 14.17 3.28 13.01 2.12 C 11.84 0.95 10.27 0.3 8.62 0.3 L 8.62 0.3 C 6.98 0.3 5.4 0.95 4.24 2.12 C 3.07 3.28 2.42 4.86 2.42 6.5 L 2.42 6.5 Z " fill="rgb(255,255,255)"/><path d=" M 4.03 4.67 C 4.09 4.61 4.16 4.58 4.24 4.58 C 4.32 4.58 4.4 4.61 4.45 4.67 C 4.51 4.72 4.54 4.8 4.54 4.88 C 4.54 4.96 4.51 5.04 4.45 5.09 L 2.12 7.43 L -0.21 5.09 C -0.27 5.04 -0.3 4.96 -0.3 4.88 C -0.3 4.8 -0.27 4.72 -0.21 4.67 C -0.16 4.61 -0.08 4.58 0 4.58 C 0.08 4.58 0.16 4.61 0.21 4.67 L 2.12 6.58 L 4.03 4.67 Z " fill="rgb(255,255,255)"/></g></svg>