<?xml version="1.0" standalone="no"?><!-- Generator: Gravit.io --><svg xmlns="http://www.w3.org/2000/svg" xmlns:xlink="http://www.w3.org/1999/xlink" style="isolation:isolate" viewBox="993.667 274.083 183.333 183.333" width="183.333" height="183.333"><path d=" M 1018.667 274.083 L 1077 274.083 Q 1080.45 274.083 1082.892 276.525 Q 1085.333 278.967 1085.333 282.417 Q 1085.333 285.867 1082.892 288.308 Q 1080.45 290.75 1077 290.75 L 1018.667 290.75 Q 1015.217 290.75 1012.775 293.192 Q 1010.333 295.633 1010.333 299.083 L 1010.333 432.417 Q 1010.333 435.867 1012.775 438.308 Q 1015.217 440.75 1018.667 440.75 L 1152 440.75 Q 1155.45 440.75 1157.892 438.308 Q 1160.333 435.867 1160.333 432.417 L 1160.333 374.083 Q 1160.333 370.633 1162.775 368.192 Q 1165.217 365.75 1168.667 365.75 Q 1172.117 365.75 1174.558 368.192 Q 1177 370.633 1177 374.083 L 1177 432.417 Q 1177 442.767 1169.675 450.092 Q 1162.35 457.417 1152 457.417 L 1018.667 457.417 Q 1008.317 457.417 1000.992 450.092 Q 993.667 442.767 993.667 432.417 L 993.667 299.083 Q 993.667 288.733 1000.992 281.408 Q 1008.317 274.083 1018.667 274.083 L 1018.667 274.083 Z  M 1118.667 274.083 L 1168.667 274.083 Q 1172.117 274.083 1174.558 276.525 Q 1177 278.967 1177 282.417 L 1177 332.417 Q 1177 335.867 1174.558 338.308 Q 1172.117 340.75 1168.667 340.75 Q 1165.217 340.75 1162.775 338.308 Q 1160.333 335.867 1160.333 332.417 L 1160.333 302.533 L 1091.192 371.675 Q 1088.783 374.083 1085.333 374.083 Q 1081.75 374.083 1079.375 371.708 Q 1077 369.333 1077 365.75 Q 1077 362.3 1079.408 359.892 L 1148.55 290.75 L 1118.667 290.75 Q 1115.217 290.75 1112.775 288.308 Q 1110.333 285.867 1110.333 282.417 Q 1110.333 278.967 1112.775 276.525 Q 1115.217 274.083 1118.667 274.083 L 1118.667 274.083 Z " fill="rgb(255,255,255)"/></svg>