<svg xmlns="http://www.w3.org/2000/svg" width="1920" height="1080"><path d="M906,596L798,582L801,743Z" fill="#4bb2c2" stroke="#4bb2c2" stroke-width="1.51"/><path d="M801,743L1021,766L906,596Z" fill="#3eaac2" stroke="#3eaac2" stroke-width="1.51"/><path d="M798,582L635,584L801,743Z" fill="#55b5c0" stroke="#55b5c0" stroke-width="1.51"/><path d="M1140,652L1032,514L906,596Z" fill="#3caec3" stroke="#3caec3" stroke-width="1.51"/><path d="M906,596L799,425L798,582Z" fill="#52bbc3" stroke="#52bbc3" stroke-width="1.51"/><path d="M798,582L649,515L635,584Z" fill="#5ebdc1" stroke="#5ebdc1" stroke-width="1.51"/><path d="M1032,514L799,425L906,596Z" fill="#4db9c3" stroke="#4db9c3" stroke-width="1.51"/><path d="M799,425L649,515L798,582Z" fill="#5ebfc1" stroke="#5ebfc1" stroke-width="1.51"/><path d="M1021,766L1140,652L906,596Z" fill="#36a7c3" stroke="#36a7c3" stroke-width="1.51"/><path d="M801,743L785,955L1021,766Z" fill="#429ebe" stroke="#429ebe" stroke-width="1.51"/><path d="M598,920L785,955L801,743Z" fill="#529cb9" stroke="#529cb9" stroke-width="1.51"/><path d="M1032,514L850,331L799,425Z" fill="#5dbec1" stroke="#5dbec1" stroke-width="1.51"/><path d="M799,425L689,329L649,515Z" fill="#6dc5be" stroke="#6dc5be" stroke-width="1.51"/><path d="M635,584L569,878L801,743Z" fill="#58afbe" stroke="#58afbe" stroke-width="1.51"/><path d="M496,617L569,878L635,584Z" fill="#68b7be" stroke="#68b7be" stroke-width="1.51"/><path d="M649,515L496,617L635,584Z" fill="#6ac0bf" stroke="#6ac0bf" stroke-width="1.51"/><path d="M392,520L496,617L649,515Z" fill="#76c6bf" stroke="#76c6bf" stroke-width="1.51"/><path d="M569,878L598,920L801,743Z" fill="#59a2ba" stroke="#59a2ba" stroke-width="1.51"/><path d="M1021,766L1157,830L1140,652Z" fill="#2b9bc1" stroke="#2b9bc1" stroke-width="1.51"/><path d="M1182,974L1157,830L1021,766Z" fill="#2d8ebc" stroke="#2d8ebc" stroke-width="1.51"/><path d="M850,331L689,329L799,425Z" fill="#6fc6be" stroke="#6fc6be" stroke-width="1.51"/><path d="M785,955L899,1040L1021,766Z" fill="#3f91b8" stroke="#3f91b8" stroke-width="1.51"/><path d="M740,1073L899,1040L785,955Z" fill="#4c89b2" stroke="#4c89b2" stroke-width="1.51"/><path d="M1032,514L1027,270L850,331Z" fill="#5dbec1" stroke="#5dbec1" stroke-width="1.51"/><path d="M1140,652L1189,489L1032,514Z" fill="#3aabc3" stroke="#3aabc3" stroke-width="1.51"/><path d="M1304,398L1189,489L1366,554Z" fill="#40a6c1" stroke="#40a6c1" stroke-width="1.51"/><path d="M496,617L455,814L569,878Z" fill="#6eb2bc" stroke="#6eb2bc" stroke-width="1.51"/><path d="M569,878L438,985L598,920Z" fill="#699db4" stroke="#699db4" stroke-width="1.51"/><path d="M1189,489L1125,350L1032,514Z" fill="#4cb1c1" stroke="#4cb1c1" stroke-width="1.51"/><path d="M598,920L740,1073L785,955Z" fill="#5590b3" stroke="#5590b3" stroke-width="1.51"/><path d="M671,1093L740,1073L598,920Z" fill="#598db0" stroke="#598db0" stroke-width="1.51"/><path d="M1125,350L1027,270L1032,514Z" fill="#5ab8c0" stroke="#5ab8c0" stroke-width="1.51"/><path d="M850,331L720,183L689,329Z" fill="#7eccbc" stroke="#7eccbc" stroke-width="1.51"/><path d="M899,1040L1182,974L1021,766Z" fill="#338ab8" stroke="#338ab8" stroke-width="1.51"/><path d="M1366,554L1189,489L1140,652Z" fill="#33a4c3" stroke="#33a4c3" stroke-width="1.51"/><path d="M914,1224L1057,1127L899,1040Z" fill="#3e79af" stroke="#3e79af" stroke-width="1.51"/><path d="M504,1139L671,1093L598,920Z" fill="#628daf" stroke="#628daf" stroke-width="1.51"/><path d="M496,617L323,617L455,814Z" fill="#7cbdbd" stroke="#7cbdbd" stroke-width="1.51"/><path d="M689,329L392,520L649,515Z" fill="#78c8be" stroke="#78c8be" stroke-width="1.51"/><path d="M689,329L431,229L392,520Z" fill="#8bd0bb" stroke="#8bd0bb" stroke-width="1.51"/><path d="M981,169L720,183L850,331Z" fill="#81cbbd" stroke="#81cbbd" stroke-width="1.51"/><path d="M1027,270L981,169L850,331Z" fill="#74c6bf" stroke="#74c6bf" stroke-width="1.51"/><path d="M1200,150L981,169L1027,270Z" fill="#7cc3be" stroke="#7cc3be" stroke-width="1.51"/><path d="M914,1224L899,1040L740,1073Z" fill="#497faf" stroke="#497faf" stroke-width="1.51"/><path d="M899,1040L1057,1127L1182,974Z" fill="#367db2" stroke="#367db2" stroke-width="1.51"/><path d="M455,814L438,985L569,878Z" fill="#70a4b6" stroke="#70a4b6" stroke-width="1.51"/><path d="M333,1018L438,985L455,814Z" fill="#79a1b3" stroke="#79a1b3" stroke-width="1.51"/><path d="M392,520L323,617L496,617Z" fill="#83c7bd" stroke="#83c7bd" stroke-width="1.51"/><path d="M1189,489L1304,398L1125,350Z" fill="#50afc0" stroke="#50afc0" stroke-width="1.51"/><path d="M1125,350L1200,150L1027,270Z" fill="#6ebdbe" stroke="#6ebdbe" stroke-width="1.51"/><path d="M1366,554L1140,652L1385,860Z" fill="#2695c0" stroke="#2695c0" stroke-width="1.51"/><path d="M1385,860L1140,652L1157,830Z" fill="#2391bf" stroke="#2391bf" stroke-width="1.51"/><path d="M1304,398L1243,278L1125,350Z" fill="#5ab1bf" stroke="#5ab1bf" stroke-width="1.51"/><path d="M818,1273L914,1224L740,1073Z" fill="#4d78aa" stroke="#4d78aa" stroke-width="1.51"/><path d="M818,1273L740,1073L671,1093Z" fill="#547eac" stroke="#547eac" stroke-width="1.51"/><path d="M1369,910L1385,860L1157,830Z" fill="#2182ba" stroke="#2182ba" stroke-width="1.51"/><path d="M1369,910L1157,830L1182,974Z" fill="#2682b9" stroke="#2682b9" stroke-width="1.51"/><path d="M1362,1160L1369,910L1182,974Z" fill="#2572b2" stroke="#2572b2" stroke-width="1.51"/><path d="M438,985L504,1139L598,920Z" fill="#6c94b0" stroke="#6c94b0" stroke-width="1.51"/><path d="M537,112L431,229L689,329Z" fill="#9bd7b9" stroke="#9bd7b9" stroke-width="1.51"/><path d="M392,520L222,458L323,617Z" fill="#90d0bd" stroke="#90d0bd" stroke-width="1.51"/><path d="M558,1366L818,1273L671,1093Z" fill="#5579a1" stroke="#5579a1" stroke-width="1.51"/><path d="M190,863L333,1018L455,814Z" fill="#83a9b4" stroke="#83a9b4" stroke-width="1.51"/><path d="M438,985L333,1018L504,1139Z" fill="#7794ae" stroke="#7794ae" stroke-width="1.51"/><path d="M1243,278L1200,150L1125,350Z" fill="#6cb8be" stroke="#6cb8be" stroke-width="1.51"/><path d="M497,70L537,112L577,-81Z" fill="#b7e2b6" stroke="#b7e2b6" stroke-width="1.51"/><path d="M1372,176L1200,150L1243,278Z" fill="#76b7bc" stroke="#76b7bc" stroke-width="1.51"/><path d="M720,183L537,112L689,329Z" fill="#93d4b9" stroke="#93d4b9" stroke-width="1.51"/><path d="M537,112L720,183L577,-81Z" fill="#abddb8" stroke="#abddb8" stroke-width="1.51"/><path d="M431,229L301,314L392,520Z" fill="#9bd7b9" stroke="#9bd7b9" stroke-width="1.51"/><path d="M323,617L190,863L455,814Z" fill="#85babb" stroke="#85babb" stroke-width="1.51"/><path d="M169,238L301,314L253,101Z" fill="#bbe3b6" stroke="#bbe3b6" stroke-width="1.51"/><path d="M1535,863L1490,702L1385,860Z" fill="#227bb6" stroke="#227bb6" stroke-width="1.51"/><path d="M1385,860L1490,702L1366,554Z" fill="#278bbc" stroke="#278bbc" stroke-width="1.51"/><path d="M1511,476L1428,339L1304,398Z" fill="#4f9fba" stroke="#4f9fba" stroke-width="1.51"/><path d="M1304,398L1428,339L1243,278Z" fill="#59aabd" stroke="#59aabd" stroke-width="1.51"/><path d="M301,314L222,458L392,520Z" fill="#9bd5ba" stroke="#9bd5ba" stroke-width="1.51"/><path d="M1511,476L1304,398L1366,554Z" fill="#439dbd" stroke="#439dbd" stroke-width="1.51"/><path d="M818,1273L897,1333L914,1224Z" fill="#41709f" stroke="#41709f" stroke-width="1.51"/><path d="M914,1224L1060,1441L1057,1127Z" fill="#366ca0" stroke="#366ca0" stroke-width="1.51"/><path d="M1057,1127L1362,1160L1182,974Z" fill="#2e70af" stroke="#2e70af" stroke-width="1.51"/><path d="M805,1443L897,1333L818,1273Z" fill="#3f6d94" stroke="#3f6d94" stroke-width="1.51"/><path d="M28,591L190,863L323,617Z" fill="#93c4bb" stroke="#93c4bb" stroke-width="1.51"/><path d="M537,112L497,70L431,229Z" fill="#b0dfb7" stroke="#b0dfb7" stroke-width="1.51"/><path d="M841,-103L720,183L981,169Z" fill="#9ad4bb" stroke="#9ad4bb" stroke-width="1.51"/><path d="M1588,560L1511,476L1366,554Z" fill="#3893bb" stroke="#3893bb" stroke-width="1.51"/><path d="M1610,253L1372,176L1428,339Z" fill="#6aa3b7" stroke="#6aa3b7" stroke-width="1.51"/><path d="M1428,339L1372,176L1243,278Z" fill="#68adbb" stroke="#68adbb" stroke-width="1.51"/><path d="M1273,1285L1362,1160L1057,1127Z" fill="#2f65aa" stroke="#2f65aa" stroke-width="1.51"/><path d="M1524,931L1535,863L1385,860Z" fill="#2372b1" stroke="#2372b1" stroke-width="1.51"/><path d="M1524,931L1385,860L1369,910Z" fill="#2374b3" stroke="#2374b3" stroke-width="1.51"/><path d="M1490,702L1588,560L1366,554Z" fill="#318eba" stroke="#318eba" stroke-width="1.51"/><path d="M1113,-92L1012,-50L1200,150Z" fill="#97cabc" stroke="#97cabc" stroke-width="1.51"/><path d="M1200,150L1012,-50L981,169Z" fill="#8fc9bc" stroke="#8fc9bc" stroke-width="1.51"/><path d="M1362,1160L1524,931L1369,910Z" fill="#256aae" stroke="#256aae" stroke-width="1.51"/><path d="M1642,749L1490,702L1535,863Z" fill="#2379b5" stroke="#2379b5" stroke-width="1.51"/><path d="M1642,749L1588,560L1490,702Z" fill="#2c81b7" stroke="#2c81b7" stroke-width="1.51"/><path d="M1511,476L1584,404L1428,339Z" fill="#4f98b8" stroke="#4f98b8" stroke-width="1.51"/><path d="M1211,1369L1273,1285L1057,1127Z" fill="#2d63a0" stroke="#2d63a0" stroke-width="1.51"/><path d="M504,1139L558,1366L671,1093Z" fill="#647fa7" stroke="#647fa7" stroke-width="1.51"/><path d="M515,1381L558,1366L504,1139Z" fill="#637a98" stroke="#637a98" stroke-width="1.51"/><path d="M515,1381L504,1139L252,1322Z" fill="#6f7f9a" stroke="#6f7f9a" stroke-width="1.51"/><path d="M1012,-50L841,-103L981,169Z" fill="#9bd3bc" stroke="#9bd3bc" stroke-width="1.51"/><path d="M190,863L137,977L333,1018Z" fill="#8aa4b1" stroke="#8aa4b1" stroke-width="1.51"/><path d="M49,862L137,977L190,863Z" fill="#91aeb3" stroke="#91aeb3" stroke-width="1.51"/><path d="M897,1333L1016,1437L914,1224Z" fill="#356b98" stroke="#356b98" stroke-width="1.51"/><path d="M558,1366L805,1443L818,1273Z" fill="#486f91" stroke="#486f91" stroke-width="1.51"/><path d="M1588,560L1584,404L1511,476Z" fill="#438fb7" stroke="#438fb7" stroke-width="1.51"/><path d="M1372,176L1250,-12L1200,150Z" fill="#88bcbb" stroke="#88bcbb" stroke-width="1.51"/><path d="M896,-282L812,-217L841,-103Z" fill="#b0dcc2" stroke="#b0dcc2" stroke-width="1.51"/><path d="M1508,73L1250,-12L1372,176Z" fill="#89b5b8" stroke="#89b5b8" stroke-width="1.51"/><path d="M253,101L301,314L431,229Z" fill="#b5e1b6" stroke="#b5e1b6" stroke-width="1.51"/><path d="M841,-103L577,-81L720,183Z" fill="#abdcb8" stroke="#abdcb8" stroke-width="1.51"/><path d="M558,1366L615,1472L805,1443Z" fill="#4a6e89" stroke="#4a6e89" stroke-width="1.51"/><path d="M232,1193L504,1139L333,1018Z" fill="#7f8faa" stroke="#7f8faa" stroke-width="1.51"/><path d="M805,1443L1016,1437L897,1333Z" fill="#34678c" stroke="#34678c" stroke-width="1.51"/><path d="M301,314L169,238L222,458Z" fill="#a9dcb8" stroke="#a9dcb8" stroke-width="1.51"/><path d="M222,458L28,591L323,617Z" fill="#97d1bc" stroke="#97d1bc" stroke-width="1.51"/><path d="M253,101L431,229L497,70Z" fill="#bbe4b6" stroke="#bbe4b6" stroke-width="1.51"/><path d="M1060,1441L1211,1369L1057,1127Z" fill="#2d6499" stroke="#2d6499" stroke-width="1.51"/><path d="M169,238L61,497L222,458Z" fill="#a8dab9" stroke="#a8dab9" stroke-width="1.51"/><path d="M1250,-12L1113,-92L1200,150Z" fill="#93c4bb" stroke="#93c4bb" stroke-width="1.51"/><path d="M1839,560L1773,316L1584,404Z" fill="#4e86b0" stroke="#4e86b0" stroke-width="1.51"/><path d="M1608,990L1642,749L1535,863Z" fill="#236baf" stroke="#236baf" stroke-width="1.51"/><path d="M1016,1437L1060,1441L914,1224Z" fill="#2f6692" stroke="#2f6692" stroke-width="1.51"/><path d="M1256,1505L1060,1441L1016,1437Z" fill="#265d8c" stroke="#265d8c" stroke-width="1.51"/><path d="M137,977L232,1193L333,1018Z" fill="#8999ac" stroke="#8999ac" stroke-width="1.51"/><path d="M421,-50L253,101L497,70Z" fill="#c5e8b5" stroke="#c5e8b5" stroke-width="1.51"/><path d="M61,497L28,591L222,458Z" fill="#a1d6bb" stroke="#a1d6bb" stroke-width="1.51"/><path d="M28,591L49,862L190,863Z" fill="#96beba" stroke="#96beba" stroke-width="1.51"/><path d="M137,977L154,1199L232,1193Z" fill="#8c93a9" stroke="#8c93a9" stroke-width="1.51"/><path d="M577,-81L421,-50L497,70Z" fill="#c0e5b5" stroke="#c0e5b5" stroke-width="1.51"/><path d="M1524,931L1608,990L1535,863Z" fill="#2367ad" stroke="#2367ad" stroke-width="1.51"/><path d="M1518,1164L1608,990L1524,931Z" fill="#255da8" stroke="#255da8" stroke-width="1.51"/><path d="M1518,1164L1524,931L1362,1160Z" fill="#275ea8" stroke="#275ea8" stroke-width="1.51"/><path d="M1518,1164L1362,1160L1498,1371Z" fill="#26529d" stroke="#26529d" stroke-width="1.51"/><path d="M515,1381L615,1472L558,1366Z" fill="#557289" stroke="#557289" stroke-width="1.51"/><path d="M805,1443L1256,1505L1016,1437Z" fill="#2a628c" stroke="#2a628c" stroke-width="1.51"/><path d="M384,1544L615,1472L515,1381Z" fill="#5c7488" stroke="#5c7488" stroke-width="1.51"/><path d="M1498,1371L1362,1160L1273,1285Z" fill="#24569a" stroke="#24569a" stroke-width="1.51"/><path d="M577,-81L475,-214L421,-50Z" fill="#c9e8b5" stroke="#c9e8b5" stroke-width="1.51"/><path d="M841,-103L643,-173L577,-81Z" fill="#b7e0b8" stroke="#b7e0b8" stroke-width="1.51"/><path d="M812,-217L643,-173L841,-103Z" fill="#b4dfbe" stroke="#b4dfbe" stroke-width="1.51"/><path d="M1584,404L1610,253L1428,339Z" fill="#5a98b5" stroke="#5a98b5" stroke-width="1.51"/><path d="M1773,316L1610,253L1584,404Z" fill="#5b90b1" stroke="#5b90b1" stroke-width="1.51"/><path d="M232,1193L252,1322L504,1139Z" fill="#7e87a2" stroke="#7e87a2" stroke-width="1.51"/><path d="M-117,1150L154,1199L137,977Z" fill="#9397aa" stroke="#9397aa" stroke-width="1.51"/><path d="M896,-282L841,-103L1012,-50Z" fill="#aad9be" stroke="#aad9be" stroke-width="1.51"/><path d="M253,101L148,120L169,238Z" fill="#c8e9b5" stroke="#c8e9b5" stroke-width="1.51"/><path d="M169,238L-50,377L61,497Z" fill="#b1deb8" stroke="#b1deb8" stroke-width="1.51"/><path d="M-133,599L-73,798L28,591Z" fill="#a2ccbe" stroke="#a2ccbe" stroke-width="1.51"/><path d="M89,-22L148,120L253,101Z" fill="#d4eeb3" stroke="#d4eeb3" stroke-width="1.51"/><path d="M154,1199L252,1322L232,1193Z" fill="#85899f" stroke="#85899f" stroke-width="1.51"/><path d="M1610,253L1508,73L1372,176Z" fill="#7aa6b4" stroke="#7aa6b4" stroke-width="1.51"/><path d="M1375,-221L1110,-270L1113,-92Z" fill="#a2cac2" stroke="#a2cac2" stroke-width="1.51"/><path d="M475,-214L333,-92L421,-50Z" fill="#d1ecb5" stroke="#d1ecb5" stroke-width="1.51"/><path d="M421,-50L333,-92L253,101Z" fill="#d0ecb4" stroke="#d0ecb4" stroke-width="1.51"/><path d="M49,862L-107,897L137,977Z" fill="#98aeb3" stroke="#98aeb3" stroke-width="1.51"/><path d="M28,591L-73,798L49,862Z" fill="#9cc3ba" stroke="#9cc3ba" stroke-width="1.51"/><path d="M-133,599L28,591L61,497Z" fill="#a5d4bc" stroke="#a5d4bc" stroke-width="1.51"/><path d="M-23,208L-50,377L169,238Z" fill="#bfe4b6" stroke="#bfe4b6" stroke-width="1.51"/><path d="M1211,1369L1412,1479L1273,1285Z" fill="#1d558e" stroke="#1d558e" stroke-width="1.51"/><path d="M1060,1441L1256,1505L1211,1369Z" fill="#225a8b" stroke="#225a8b" stroke-width="1.51"/><path d="M615,1472L1256,1505L805,1443Z" fill="#35678c" stroke="#35678c" stroke-width="1.51"/><path d="M812,-217L896,-282L643,-173Z" fill="#b5dfc3" stroke="#b5dfc3" stroke-width="1.51"/><path d="M643,-173L475,-214L577,-81Z" fill="#c3e6ba" stroke="#c3e6ba" stroke-width="1.51"/><path d="M1110,-270L896,-282L1012,-50Z" fill="#a8d6c3" stroke="#a8d6c3" stroke-width="1.51"/><path d="M1110,-270L1012,-50L1113,-92Z" fill="#a4d0be" stroke="#a4d0be" stroke-width="1.51"/><path d="M896,-282L475,-214L643,-173Z" fill="#bce3c1" stroke="#bce3c1" stroke-width="1.51"/><path d="M1412,1479L1498,1371L1273,1285Z" fill="#1c4e8a" stroke="#1c4e8a" stroke-width="1.51"/><path d="M1518,1164L1715,1127L1608,990Z" fill="#2552a3" stroke="#2552a3" stroke-width="1.51"/><path d="M1508,73L1498,-48L1250,-12Z" fill="#90b4b6" stroke="#90b4b6" stroke-width="1.51"/><path d="M1581,-107L1498,-48L1508,73Z" fill="#92abb2" stroke="#92abb2" stroke-width="1.51"/><path d="M1375,-221L1113,-92L1250,-12Z" fill="#9ec5bb" stroke="#9ec5bb" stroke-width="1.51"/><path d="M148,120L-23,208L169,238Z" fill="#c8e8b5" stroke="#c8e8b5" stroke-width="1.51"/><path d="M89,-22L-23,208L148,120Z" fill="#d6eeb3" stroke="#d6eeb3" stroke-width="1.51"/><path d="M89,-22L253,101L333,-92Z" fill="#d6efb3" stroke="#d6efb3" stroke-width="1.51"/><path d="M-50,377L-133,599L61,497Z" fill="#abdabc" stroke="#abdabc" stroke-width="1.51"/><path d="M-251,756L-133,599L-294,606Z" fill="#a6cfc7" stroke="#a6cfc7" stroke-width="1.51"/><path d="M-73,798L-107,897L49,862Z" fill="#9cb7b7" stroke="#9cb7b7" stroke-width="1.51"/><path d="M235,1538L384,1544L252,1322Z" fill="#727b87" stroke="#727b87" stroke-width="1.51"/><path d="M-251,756L-107,897L-73,798Z" fill="#9ebcbf" stroke="#9ebcbf" stroke-width="1.51"/><path d="M1694,1382L1715,1127L1518,1164Z" fill="#234598" stroke="#234598" stroke-width="1.51"/><path d="M1608,990L1830,771L1642,749Z" fill="#2668ad" stroke="#2668ad" stroke-width="1.51"/><path d="M1773,316L1666,110L1610,253Z" fill="#6f94af" stroke="#6f94af" stroke-width="1.51"/><path d="M1610,253L1666,110L1508,73Z" fill="#7e9fb1" stroke="#7e9fb1" stroke-width="1.51"/><path d="M1584,404L1588,560L1839,560Z" fill="#3f86b4" stroke="#3f86b4" stroke-width="1.51"/><path d="M1839,560L1588,560L1642,749Z" fill="#337db3" stroke="#337db3" stroke-width="1.51"/><path d="M1806,1050L1830,771L1608,990Z" fill="#2559a6" stroke="#2559a6" stroke-width="1.51"/><path d="M615,1472L384,1544L1256,1505Z" fill="#436c8a" stroke="#436c8a" stroke-width="1.51"/><path d="M252,1322L384,1544L515,1381Z" fill="#697887" stroke="#697887" stroke-width="1.51"/><path d="M17,1314L252,1322L154,1199Z" fill="#858799" stroke="#858799" stroke-width="1.51"/><path d="M1808,1157L1806,1050L1715,1127Z" fill="#26469c" stroke="#26469c" stroke-width="1.51"/><path d="M1256,1505L1412,1479L1211,1369Z" fill="#1b548a" stroke="#1b548a" stroke-width="1.51"/><path d="M1830,771L1839,560L1642,749Z" fill="#2f72b0" stroke="#2f72b0" stroke-width="1.51"/><path d="M275,-197L89,-22L333,-92Z" fill="#dff2b2" stroke="#dff2b2" stroke-width="1.51"/><path d="M164,-300L275,-197L475,-214Z" fill="#e0f3be" stroke="#e0f3be" stroke-width="1.51"/><path d="M475,-214L275,-197L333,-92Z" fill="#d8f0b9" stroke="#d8f0b9" stroke-width="1.51"/><path d="M1498,-48L1375,-221L1250,-12Z" fill="#9bbbb7" stroke="#9bbbb7" stroke-width="1.51"/><path d="M1581,-107L1375,-221L1498,-48Z" fill="#9ab2b5" stroke="#9ab2b5" stroke-width="1.51"/><path d="M1715,1127L1806,1050L1608,990Z" fill="#254fa1" stroke="#254fa1" stroke-width="1.51"/><path d="M1808,1157L1715,1127L1694,1382Z" fill="#243f95" stroke="#243f95" stroke-width="1.51"/><path d="M-117,1150L17,1314L154,1199Z" fill="#928da1" stroke="#928da1" stroke-width="1.51"/><path d="M1982,508L1890,488L1839,560Z" fill="#4277ad" stroke="#4277ad" stroke-width="1.51"/><path d="M1839,560L1890,488L1773,316Z" fill="#4b7eae" stroke="#4b7eae" stroke-width="1.51"/><path d="M1773,316L1850,78L1666,110Z" fill="#7a92ac" stroke="#7a92ac" stroke-width="1.51"/><path d="M1982,508L1839,560L2022,661Z" fill="#3b70aa" stroke="#3b70aa" stroke-width="1.51"/><path d="M1551,-262L1581,-107L1663,-178Z" fill="#9ba8b6" stroke="#9ba8b6" stroke-width="1.51"/><path d="M1666,110L1581,-107L1508,73Z" fill="#8ca5b1" stroke="#8ca5b1" stroke-width="1.51"/><path d="M91,1547L235,1538L252,1322Z" fill="#777e87" stroke="#777e87" stroke-width="1.51"/><path d="M-249,1077L-117,1150L-107,897Z" fill="#9ba1b5" stroke="#9ba1b5" stroke-width="1.51"/><path d="M-107,897L-117,1150L137,977Z" fill="#99a3af" stroke="#99a3af" stroke-width="1.51"/><path d="M2022,661L1839,560L1830,771Z" fill="#346cac" stroke="#346cac" stroke-width="1.51"/><path d="M1694,1382L1518,1164L1498,1371Z" fill="#1e458f" stroke="#1e458f" stroke-width="1.51"/><path d="M-133,599L-251,756L-73,798Z" fill="#a1c8c3" stroke="#a1c8c3" stroke-width="1.51"/><path d="M-294,606L-133,599L-317,420Z" fill="#abd9ca" stroke="#abd9ca" stroke-width="1.51"/><path d="M1706,1460L1694,1382L1498,1371Z" fill="#173b7e" stroke="#173b7e" stroke-width="1.51"/><path d="M-317,420L-133,599L-50,377Z" fill="#b1dcc3" stroke="#b1dcc3" stroke-width="1.51"/><path d="M89,-22L-104,28L-23,208Z" fill="#def2b3" stroke="#def2b3" stroke-width="1.51"/><path d="M-41,-159L-10,-59L89,-22Z" fill="#e9f6b1" stroke="#e9f6b1" stroke-width="1.51"/><path d="M-117,1150L-102,1286L17,1314Z" fill="#928ca0" stroke="#928ca0" stroke-width="1.51"/><path d="M17,1314L91,1547L252,1322Z" fill="#7c7f88" stroke="#7c7f88" stroke-width="1.51"/><path d="M-179,1367L-102,1286L-117,1150Z" fill="#928ca1" stroke="#928ca1" stroke-width="1.51"/><path d="M-289,334L-50,377L-23,208Z" fill="#bfe4bc" stroke="#bfe4bc" stroke-width="1.51"/><path d="M-280,988L-249,1077L-107,897Z" fill="#9ca7ba" stroke="#9ca7ba" stroke-width="1.51"/><path d="M-10,-59L-104,28L89,-22Z" fill="#e5f5b2" stroke="#e5f5b2" stroke-width="1.51"/><path d="M1890,488L2071,287L1773,316Z" fill="#587daa" stroke="#587daa" stroke-width="1.51"/><path d="M2022,661L1830,771L2044,860Z" fill="#2a60a6" stroke="#2a60a6" stroke-width="1.51"/><path d="M-59,1550L91,1547L17,1314Z" fill="#818186" stroke="#818186" stroke-width="1.51"/><path d="M235,1538L91,1547L384,1544Z" fill="#757c86" stroke="#757c86" stroke-width="1.51"/><path d="M1581,-107L1551,-262L1375,-221Z" fill="#9db1bb" stroke="#9db1bb" stroke-width="1.51"/><path d="M1375,-221L1551,-262L1110,-270Z" fill="#a0c0c4" stroke="#a0c0c4" stroke-width="1.51"/><path d="M1110,-270L2144,-296L896,-282Z" fill="#a1bdc6" stroke="#a1bdc6" stroke-width="1.51"/><path d="M1663,-178L1581,-107L1666,110Z" fill="#93a3af" stroke="#93a3af" stroke-width="1.51"/><path d="M2071,287L1850,78L1773,316Z" fill="#6f86a9" stroke="#6f86a9" stroke-width="1.51"/><path d="M-280,988L-107,897L-251,756Z" fill="#9eb4c0" stroke="#9eb4c0" stroke-width="1.51"/><path d="M-294,606L-280,988L-251,756Z" fill="#a2c2c8" stroke="#a2c2c8" stroke-width="1.51"/><path d="M1787,-185L1663,-178L1666,110Z" fill="#969fac" stroke="#969fac" stroke-width="1.51"/><path d="M1412,1479L1706,1460L1498,1371Z" fill="#184281" stroke="#184281" stroke-width="1.51"/><path d="M1694,1382L1900,1366L1808,1157Z" fill="#1e3688" stroke="#1e3688" stroke-width="1.51"/><path d="M2022,1554L1706,1460L1412,1479Z" fill="#17367c" stroke="#17367c" stroke-width="1.51"/><path d="M-10,-59L-41,-159L-104,28Z" fill="#eaf7b4" stroke="#eaf7b4" stroke-width="1.51"/><path d="M275,-197L164,-300L89,-22Z" fill="#e5f5b8" stroke="#e5f5b8" stroke-width="1.51"/><path d="M896,-282L164,-300L475,-214Z" fill="#cdebc3" stroke="#cdebc3" stroke-width="1.51"/><path d="M-261,117L-289,334L-23,208Z" fill="#ceebc0" stroke="#ceebc0" stroke-width="1.51"/><path d="M1976,1015L1806,1050L1808,1157Z" fill="#26449b" stroke="#26449b" stroke-width="1.51"/><path d="M1976,1015L1830,771L1806,1050Z" fill="#2750a2" stroke="#2750a2" stroke-width="1.51"/><path d="M-289,334L-317,420L-50,377Z" fill="#bae1c4" stroke="#bae1c4" stroke-width="1.51"/><path d="M-294,606L-317,420L-280,988Z" fill="#a7cdcc" stroke="#a7cdcc" stroke-width="1.51"/><path d="M1991,1211L1976,1015L1808,1157Z" fill="#263b97" stroke="#263b97" stroke-width="1.51"/><path d="M-104,28L-261,117L-23,208Z" fill="#dcf2ba" stroke="#dcf2ba" stroke-width="1.51"/><path d="M164,-300L-41,-159L89,-22Z" fill="#eaf7b6" stroke="#eaf7b6" stroke-width="1.51"/><path d="M1976,1015L2044,860L1830,771Z" fill="#2853a2" stroke="#2853a2" stroke-width="1.51"/><path d="M1706,1460L1780,1451L1694,1382Z" fill="#17357c" stroke="#17357c" stroke-width="1.51"/><path d="M-217,-15L-261,117L-104,28Z" fill="#e5f5bd" stroke="#e5f5bd" stroke-width="1.51"/><path d="M-289,334L-261,117L-317,420Z" fill="#c6e8c6" stroke="#c6e8c6" stroke-width="1.51"/><path d="M-102,1286L-179,1367L17,1314Z" fill="#8c8796" stroke="#8c8796" stroke-width="1.51"/><path d="M-249,1077L-179,1367L-117,1150Z" fill="#9a91ae" stroke="#9a91ae" stroke-width="1.51"/><path d="M-237,1565L-179,1367L-249,1077Z" fill="#8d889c" stroke="#8d889c" stroke-width="1.51"/><path d="M2098,772L2095,595L2022,661Z" fill="#2c639d" stroke="#2c639d" stroke-width="1.51"/><path d="M2022,661L2095,595L1982,508Z" fill="#366ca2" stroke="#366ca2" stroke-width="1.51"/><path d="M2031,84L1902,-48L1850,78Z" fill="#8a8ca6" stroke="#8a8ca6" stroke-width="1.51"/><path d="M-41,-159L-217,-15L-104,28Z" fill="#ebf7b8" stroke="#ebf7b8" stroke-width="1.51"/><path d="M2044,860L2098,772L2022,661Z" fill="#255c9e" stroke="#255c9e" stroke-width="1.51"/><path d="M2094,925L2098,772L2044,860Z" fill="#235196" stroke="#235196" stroke-width="1.51"/><path d="M2094,925L2044,860L1976,1015Z" fill="#224996" stroke="#224996" stroke-width="1.51"/><path d="M-179,1367L-59,1550L17,1314Z" fill="#84828a" stroke="#84828a" stroke-width="1.51"/><path d="M91,1547L-237,1565L384,1544Z" fill="#7d8086" stroke="#7d8086" stroke-width="1.51"/><path d="M1663,-178L1787,-185L1551,-262Z" fill="#9ba4b6" stroke="#9ba4b6" stroke-width="1.51"/><path d="M1850,78L1787,-185L1666,110Z" fill="#8e98ab" stroke="#8e98ab" stroke-width="1.51"/><path d="M1902,-48L1787,-185L1850,78Z" fill="#9294a9" stroke="#9294a9" stroke-width="1.51"/><path d="M1780,1451L1900,1366L1694,1382Z" fill="#18317a" stroke="#18317a" stroke-width="1.51"/><path d="M1900,1366L1991,1211L1808,1157Z" fill="#21338d" stroke="#21338d" stroke-width="1.51"/><path d="M2071,287L1890,488L1982,508Z" fill="#4e77a6" stroke="#4e77a6" stroke-width="1.51"/><path d="M2149,1220L2094,925L1976,1015Z" fill="#203c8c" stroke="#203c8c" stroke-width="1.51"/><path d="M2179,375L2071,287L1982,508Z" fill="#4d749b" stroke="#4d749b" stroke-width="1.51"/><path d="M1991,1211L2149,1220L1976,1015Z" fill="#21348c" stroke="#21348c" stroke-width="1.51"/><path d="M1900,1366L1936,1385L1991,1211Z" fill="#1c2c80" stroke="#1c2c80" stroke-width="1.51"/><path d="M1780,1451L1936,1385L1900,1366Z" fill="#172c78" stroke="#172c78" stroke-width="1.51"/><path d="M2071,287L2031,84L1850,78Z" fill="#7985a2" stroke="#7985a2" stroke-width="1.51"/><path d="M1902,-48L1984,-192L1787,-185Z" fill="#9993aa" stroke="#9993aa" stroke-width="1.51"/><path d="M2071,287L2191,52L2031,84Z" fill="#748097" stroke="#748097" stroke-width="1.51"/><path d="M2095,595L2179,375L1982,508Z" fill="#3e6f9d" stroke="#3e6f9d" stroke-width="1.51"/><path d="M2098,772L2179,375L2095,595Z" fill="#326899" stroke="#326899" stroke-width="1.51"/><path d="M2220,308L2179,375L2098,772Z" fill="#3b6c95" stroke="#3b6c95" stroke-width="1.51"/><path d="M-179,1367L-237,1565L-59,1550Z" fill="#86838e" stroke="#86838e" stroke-width="1.51"/><path d="M-59,1550L-237,1565L91,1547Z" fill="#848289" stroke="#848289" stroke-width="1.51"/><path d="M-280,988L-237,1565L-249,1077Z" fill="#9a91b1" stroke="#9a91b1" stroke-width="1.51"/><path d="M2094,925L2188,1267L2098,772Z" fill="#1d408b" stroke="#1d408b" stroke-width="1.51"/><path d="M1936,1385L2149,1220L1991,1211Z" fill="#1c2c7f" stroke="#1c2c7f" stroke-width="1.51"/><path d="M2179,375L2220,308L2071,287Z" fill="#517493" stroke="#517493" stroke-width="1.51"/><path d="M2188,1267L2220,308L2098,772Z" fill="#1f5592" stroke="#1f5592" stroke-width="1.51"/><path d="M2029,-133L1902,-48L2031,84Z" fill="#8d8ba1" stroke="#8d8ba1" stroke-width="1.51"/><path d="M2029,-133L1984,-192L1902,-48Z" fill="#958ea3" stroke="#958ea3" stroke-width="1.51"/><path d="M1787,-185L2144,-296L1551,-262Z" fill="#9c9ab5" stroke="#9c9ab5" stroke-width="1.51"/><path d="M2191,52L2029,-133L2031,84Z" fill="#848697" stroke="#848697" stroke-width="1.51"/><path d="M2149,1220L2188,1267L2094,925Z" fill="#1c3182" stroke="#1c3182" stroke-width="1.51"/><path d="M1936,1385L2188,1267L2149,1220Z" fill="#172976" stroke="#172976" stroke-width="1.51"/><path d="M1936,1385L2186,1480L2188,1267Z" fill="#112469" stroke="#112469" stroke-width="1.51"/><path d="M1780,1451L2022,1554L1936,1385Z" fill="#172a76" stroke="#172a76" stroke-width="1.51"/><path d="M1706,1460L2022,1554L1780,1451Z" fill="#172e78" stroke="#172e78" stroke-width="1.51"/><path d="M1256,1505L2022,1554L1412,1479Z" fill="#174080" stroke="#174080" stroke-width="1.51"/><path d="M384,1544L2022,1554L1256,1505Z" fill="#1f588b" stroke="#1f588b" stroke-width="1.51"/><path d="M-237,1565L2022,1554L384,1544Z" fill="#456d8a" stroke="#456d8a" stroke-width="1.51"/><path d="M2220,308L2191,52L2071,287Z" fill="#647a91" stroke="#647a91" stroke-width="1.51"/><path d="M2029,-133L2144,-296L1984,-192Z" fill="#928ca2" stroke="#928ca2" stroke-width="1.51"/><path d="M-41,-159L-329,-258L-217,-15Z" fill="#f4fbc0" stroke="#f4fbc0" stroke-width="1.51"/><path d="M-217,-15L-329,-258L-261,117Z" fill="#eff9c1" stroke="#eff9c1" stroke-width="1.51"/><path d="M-261,117L-329,-258L-317,420Z" fill="#e4f4c4" stroke="#e4f4c4" stroke-width="1.51"/><path d="M164,-300L-329,-258L-41,-159Z" fill="#f4fbc1" stroke="#f4fbc1" stroke-width="1.51"/><path d="M2220,308L2197,-126L2191,52Z" fill="#767e8c" stroke="#767e8c" stroke-width="1.51"/><path d="M2191,52L2197,-126L2029,-133Z" fill="#878592" stroke="#878592" stroke-width="1.51"/><path d="M2022,1554L2186,1480L1936,1385Z" fill="#12246b" stroke="#12246b" stroke-width="1.51"/><path d="M2188,1267L2186,1480L2220,308Z" fill="#193a82" stroke="#193a82" stroke-width="1.51"/><path d="M2197,-126L2144,-296L2029,-133Z" fill="#8e8899" stroke="#8e8899" stroke-width="1.51"/><path d="M1984,-192L2144,-296L1787,-185Z" fill="#9890ac" stroke="#9890ac" stroke-width="1.51"/><path d="M1551,-262L2144,-296L1110,-270Z" fill="#9daabe" stroke="#9daabe" stroke-width="1.51"/><path d="M896,-282L2144,-296L164,-300Z" fill="#a9d3cc" stroke="#a9d3cc" stroke-width="1.51"/></svg>